<svg width="46" height="23" viewBox="0 0 46 23" fill="none" xmlns="http://www.w3.org/2000/svg">
<path fill-rule="evenodd" clip-rule="evenodd" d="M46 11.5C46 12.6909 45.0346 13.6562 43.8438 13.6562L7.64722 13.6562L13.686 19.2637C14.5586 20.074 14.6092 21.4383 13.7988 22.311C12.9885 23.1836 11.6242 23.2341 10.7515 22.4238L0.689026 13.0801C0.249656 12.6721 -2.62087e-08 12.0996 0 11.5C2.62087e-08 10.9004 0.249656 10.3279 0.689026 9.91991L10.7515 0.576173C11.6242 -0.234151 12.9885 -0.183621 13.7988 0.689036C14.6092 1.56169 14.5586 2.92602 13.686 3.73634L7.64722 9.34375L43.8438 9.34375C45.0346 9.34375 46 10.3091 46 11.5Z" fill="#0F172A"/>
</svg>
