<svg width="708" height="381" viewBox="0 0 708 381" fill="none" xmlns="http://www.w3.org/2000/svg">
<rect width="708" height="381" fill="#0E1F36"/>
<path d="M113.299 61.25C113.031 60.7859 112.536 60.5 112 60.5C111.464 60.5 110.969 60.7859 110.701 61.25L95.9785 86.75C95.7106 87.2141 95.7106 87.7859 95.9785 88.25C96.2465 88.7141 96.7417 89 97.2776 89H126.722C127.258 89 127.754 88.7141 128.021 88.25C128.289 87.7859 128.289 87.2141 128.021 86.75L113.299 61.25Z" fill="#D39637" stroke="#D39637" stroke-width="3" stroke-linejoin="round"/>
<path d="M155.299 108.25C155.031 107.786 154.536 107.5 154 107.5C153.464 107.5 152.969 107.786 152.701 108.25L137.979 133.75C137.711 134.214 137.711 134.786 137.979 135.25C138.246 135.714 138.742 136 139.278 136H168.722C169.258 136 169.754 135.714 170.021 135.25C170.289 134.786 170.289 134.214 170.021 133.75L155.299 108.25Z" fill="#D39637" stroke="#D39637" stroke-width="3" stroke-linejoin="round"/>
<path d="M153.634 82.5C153.813 82.8094 154.143 83 154.5 83C154.857 83 155.187 82.8094 155.366 82.5L162.727 69.75C162.906 69.4406 162.906 69.0594 162.727 68.75C162.549 68.4406 162.218 68.25 161.861 68.25L147.139 68.25C146.782 68.25 146.451 68.4406 146.273 68.75C146.094 69.0594 146.094 69.4406 146.273 69.75L153.634 82.5Z" fill="#D39637" stroke="#D39637" stroke-width="2" stroke-linejoin="round"/>
<path d="M623.701 325.75C623.969 326.214 624.464 326.5 625 326.5C625.536 326.5 626.031 326.214 626.299 325.75L641.021 300.25C641.289 299.786 641.289 299.214 641.021 298.75C640.754 298.286 640.258 298 639.722 298L610.278 298C609.742 298 609.246 298.286 608.979 298.75C608.711 299.214 608.711 299.786 608.979 300.25L623.701 325.75Z" fill="#D39637" stroke="#D39637" stroke-width="3" stroke-linejoin="round"/>
<path d="M581.701 278.75C581.969 279.214 582.464 279.5 583 279.5C583.536 279.5 584.031 279.214 584.299 278.75L599.021 253.25C599.289 252.786 599.289 252.214 599.021 251.75C598.754 251.286 598.258 251 597.722 251L568.278 251C567.742 251 567.246 251.286 566.979 251.75C566.711 252.214 566.711 252.786 566.979 253.25L581.701 278.75Z" fill="#D39637" stroke="#D39637" stroke-width="3" stroke-linejoin="round"/>
<path d="M583.366 304.5C583.187 304.191 582.857 304 582.5 304C582.143 304 581.813 304.191 581.634 304.5L574.273 317.25C574.094 317.559 574.094 317.941 574.273 318.25C574.451 318.559 574.782 318.75 575.139 318.75L589.861 318.75C590.218 318.75 590.549 318.559 590.727 318.25C590.906 317.941 590.906 317.559 590.727 317.25L583.366 304.5Z" fill="#D39637" stroke="#D39637" stroke-width="2" stroke-linejoin="round"/>
<path d="M352.701 177.75C352.969 178.214 353.464 178.5 354 178.5C354.536 178.5 355.031 178.214 355.299 177.75L370.021 152.25C370.289 151.786 370.289 151.214 370.021 150.75C369.754 150.286 369.258 150 368.722 150L339.278 150C338.742 150 338.246 150.286 337.979 150.75C337.711 151.214 337.711 151.786 337.979 152.25L352.701 177.75Z" fill="#D39637" stroke="#D39637" stroke-width="3" stroke-linejoin="round"/>
<path d="M354.366 203.5C354.187 203.191 353.857 203 353.5 203C353.143 203 352.813 203.191 352.634 203.5L345.273 216.25C345.094 216.559 345.094 216.941 345.273 217.25C345.451 217.559 345.782 217.75 346.139 217.75L360.861 217.75C361.218 217.75 361.549 217.559 361.727 217.25C361.906 216.941 361.906 216.559 361.727 216.25L354.366 203.5Z" fill="#D39637" stroke="#D39637" stroke-width="2" stroke-linejoin="round"/>
<path d="M178.634 325.5C178.813 325.809 179.143 326 179.5 326C179.857 326 180.187 325.809 180.366 325.5L187.727 312.75C187.906 312.441 187.906 312.059 187.727 311.75C187.549 311.441 187.218 311.25 186.861 311.25L172.139 311.25C171.782 311.25 171.451 311.441 171.273 311.75C171.094 312.059 171.094 312.441 171.273 312.75L178.634 325.5Z" fill="#D39637" stroke="#D39637" stroke-width="2" stroke-linejoin="round"/>
<path d="M558.366 91.5C558.187 91.1906 557.857 91 557.5 91C557.143 91 556.813 91.1906 556.634 91.5L549.273 104.25C549.094 104.559 549.094 104.941 549.273 105.25C549.451 105.559 549.782 105.75 550.139 105.75L564.861 105.75C565.218 105.75 565.549 105.559 565.727 105.25C565.906 104.941 565.906 104.559 565.727 104.25L558.366 91.5Z" fill="#D39637" stroke="#D39637" stroke-width="2" stroke-linejoin="round"/>
</svg>
